<svg xmlns="http://www.w3.org/2000/svg" xmlns:xlink="http://www.w3.org/1999/xlink" width="98" height="118" viewBox="0 0 98 118">
    <defs>
        <path id="a" d="M0 0h99v118H0z"/>
    </defs>
    <g fill="none" fill-rule="evenodd">
        <mask id="b" fill="#fff">
            <use xlink:href="#a"/>
        </mask>
        <path fill="#FFFFFE" d="M84 3.777v74.86H58.312v-5.192C52.319 78.163 45.544 81 36.25 81 17.81 81 0 66.681 0 40.114.631 16.047 14.66 0 38.294 0 52.792 0 60.828 1.106 84 3.777m-59.262 36.8c0 11.482 7.091 19.345 17.18 19.345 5.363 0 10.717-1.89 16.394-6.603V21.397c-5.203-.478-9.934-.788-15.45-.788-12.443 0-18.124 8.336-18.124 19.967" mask="url(#b)"/>
        <path fill="#FFCD00" d="M54.787 118v-9.656l19.557-18.257c5.498-5 8.29-7.986 8.29-11.848 0-5.618-3.925-8.076-9.688-8.076-3.055 0-7.94.616-15.886 3.25L54 61.21C60.986 58.664 68.583 57 75.302 57c15.189 0 21.912 8.861 21.912 19.134 0 8.863-5.935 15.534-13.795 22.643l-7.767 6.492H98V118H54.787" mask="url(#b)"/>
    </g>
</svg>
